Coordinates
version=1
nRows=10
nColumns=40
inDegrees=yes

Units are S.I. units (second, meters, Newtons, ...)
If the header above contains a line with 'inDegrees', this indicates whether rotational values are in degrees (yes) or radians (no).

endheader
time	pelvis_tilt	pelvis_list	pelvis_rotation	pelvis_tx	pelvis_ty	pelvis_tz	hip_flexion_r	hip_adduction_r	hip_rotation_r	knee_angle_r	knee_angle_r_beta	ankle_angle_r	subtalar_angle_r	mtp_angle_r	hip_flexion_l	hip_adduction_l	hip_rotation_l	knee_angle_l	knee_angle_l_beta	ankle_angle_l	subtalar_angle_l	mtp_angle_l	lumbar_extension	lumbar_bending	lumbar_rotation	arm_flex_r	arm_add_r	arm_rot_r	elbow_flex_r	pro_sup_r	wrist_flex_r	wrist_dev_r	arm_flex_l	arm_add_l	arm_rot_l	elbow_flex_l	pro_sup_l	wrist_flex_l	wrist_dev_l
      0.00000000	     -5.59957955	     15.67867586	     -1.19927481	     -0.25120011	      1.07853134	      0.26773100	     74.46114668	    -12.23325163	     21.80390005	     81.45669258	      1.42168748	     18.64974889	     -0.38877485	      0.00000000	     45.47193591	      3.19617963	    -11.46065678	     79.55725870	      1.38853611	     12.89829396	     -1.12340843	      0.00000000	    -53.85696204	    -14.63571341	    -11.47650152	     89.49407133	    -14.88457304	     46.07591737	     32.87714526	     88.06732960	      0.00000000	      0.00000000	     89.88376208	     -2.84162542	     30.17857439	     33.73311123	     88.88638831	      0.00000000	      0.00000000
      0.00833333	     -5.83398077	     16.12171956	     -0.60182850	     -0.25184699	      1.07764435	      0.26691346	     72.59917676	    -13.56981303	     21.36551600	     77.30324740	      1.34919619	     16.63709338	     -0.81451654	      0.00000000	     47.72881802	      3.35357041	    -11.36289374	     83.68401879	      1.46056166	     13.81322285	     -0.70064980	      0.00000000	    -53.76932181	    -14.68393101	    -12.24563203	     89.50493648	    -14.81398940	     46.09527871	     32.60847684	     88.01823972	      0.00000000	      0.00000000	     89.88638809	     -2.91620016	     30.23877661	     33.95796628	     88.87963250	      0.00000000	      0.00000000
      0.01666667	     -6.17358170	     16.30864893	     -0.00032821	     -0.25263103	      1.07646860	      0.26633728	     70.58062780	    -14.95980445	     20.38656291	     73.00545463	      1.27418556	     14.58673058	     -0.82802694	      0.00000000	     50.26751439	      3.19714563	    -11.22324267	     87.85717862	      1.53339704	     14.68330218	     -0.27872611	      0.00000000	    -53.52458827	    -14.60326890	    -12.74642496	     89.48944793	    -14.80761744	     46.13338882	     32.36241522	     88.01029589	      0.00000000	      0.00000000	     89.88941582	     -2.92306493	     30.30389119	     34.18114859	     88.88153179	      0.00000000	      0.00000000
      0.02500000	     -6.20835016	     16.15275541	      0.86670210	     -0.25286126	      1.07553393	      0.26549884	     67.92210723	    -16.36831916	     18.94794687	     68.94763771	      1.20336329	     12.72741687	     -1.52165534	      0.00000000	     52.61753566	      3.06603938	    -10.57617715	     92.00279895	      1.60575176	     15.42098300	      0.05986369	      0.00000000	    -53.50351200	    -14.05153366	    -13.21958793	     89.44344084	    -14.87645953	     46.25761528	     32.25745384	     88.01613694	      0.00000000	      0.00000000	     89.89103585	     -2.90881618	     30.52836702	     34.19860076	     88.88726278	      0.00000000	      0.00000000
      0.03333333	     -6.12144567	     16.78128692	      1.51111209	     -0.25281573	      1.07487281	      0.26480049	     65.43284217	    -18.27823917	     17.92438001	     64.99690130	      1.13440993	     10.71487732	     -1.27607207	      0.00000000	     54.76948743	      3.46083211	    -10.74904676	     95.74313918	      1.67103301	     16.30979128	      0.32842107	      0.00000000	    -53.79729834	    -14.15514278	    -14.15798896	     89.39943523	    -14.92056783	     46.23319271	     32.12187278	     87.95609976	      0.00000000	      0.00000000	     89.89457244	     -2.81399418	     30.62147254	     34.35541346	     88.89738573	      0.00000000	      0.00000000
      0.04166667	     -6.40860551	     16.98503025	      2.49635676	     -0.25299354	      1.07386352	      0.26362241	     63.01125845	    -19.97809802	     16.40781549	     61.18318220	      1.06784798	      8.87073676	     -1.23837657	      0.00000000	     57.36360525	      3.60247914	    -10.52758488	     99.34830923	      1.73395510	     17.24245569	      1.05927549	      0.00000000	    -53.55798147	    -13.84236961	    -15.02639541	     89.34005390	    -14.79498832	     46.73702158	     31.40390039	     87.96881415	      0.00000000	      0.00000000	     89.89230554	     -2.89335524	     30.93580006	     34.37198872	     88.88823706	      0.00000000	      0.00000000
      0.05000000	     -6.89959550	     16.53942103	      3.53744975	     -0.25347225	      1.07227524	      0.26291900	     60.43947328	    -21.11354542	     14.21737274	     57.36167962	      1.00115017	      7.00748066	     -1.56412618	      0.00000000	     60.47981662	      3.27225797	     -9.74676339	    103.04037152	      1.79839375	     17.98664499	      2.25365017	      0.00000000	    -53.02009317	    -13.11737171	    -15.28040853	     89.29561133	    -14.86712856	     47.14900664	     31.02464228	     87.91268549	      0.00000000	      0.00000000	     89.89040063	     -2.77859104	     31.16341495	     34.29163181	     88.88725356	      0.00000000	      0.00000000
      0.05833333	     -7.25309605	     16.92798766	      4.43224180	     -0.25355527	      1.07134679	      0.26182811	     58.11201213	    -22.79846931	     12.56181935	     53.75631136	      0.93822463	      4.82402514	     -1.18385593	      0.00000000	     63.16252657	      3.56379914	     -9.81453538	    106.06324808	      1.85115289	     19.15817914	      2.43282649	      0.00000000	    -52.82138343	    -13.03244700	    -16.17847969	     89.19008502	    -14.87743223	     47.37024305	     30.61893059	     87.89107570	      0.00000000	      0.00000000	     89.88998883	     -2.69265514	     31.41702439	     34.25578082	     88.88949416	      0.00000000	      0.00000000
      0.06666667	     -7.58261314	     16.20130658	      5.40422218	     -0.25365907	      1.07024091	      0.26120381	     55.20933978	    -23.49725041	      9.99773231	     50.37921598	      0.87928319	      3.16841079	     -1.17483320	      0.00000000	     66.17704345	      3.00067420	     -8.94592294	    109.25356391	      1.90683441	     19.77705421	      3.55640266	      0.00000000	    -52.36932760	    -12.10705938	    -16.19825053	     89.15619620	    -14.96181773	     47.81793447	     30.24978281	     87.84566457	      0.00000000	      0.00000000	     89.88810477	     -2.52962098	     31.60638340	     34.09761795	     88.88904329	      0.00000000	      0.00000000
      0.07500000	     -8.19762283	     15.84496995	      6.29560941	     -0.25401448	      1.06906649	      0.26045358	     52.98959362	    -24.15431400	      8.08559317	     47.41600909	      0.82756548	      1.21781698	     -1.45869644	      0.00000000	     69.23712572	      2.80109280	     -8.41817096	    111.83423027	      1.95187553	     20.96185442	      4.56439929	      0.00000000	    -51.74301500	    -11.57729683	    -16.44892788	     89.06826897	    -15.05336215	     48.05980051	     29.97260008	     87.80724358	      0.00000000	      0.00000000	     89.88719071	     -2.36038217	     31.78894358	     33.94142593	     88.88759047	      0.00000000	      0.00000000
